# xmcd
#
# Track frame offsets:
#	150
#	9632
#	20799
#	28197
#	39300
#	48642
#	58011
#	68673
#	90692
#	99226
#	116369
#	128476
#	139559
#	149053
#	158987
#	169568
#	179035
#	190954
#	201284
#	210806
#	219904
#	228549
#	239339
#	248388
#	258363
#	267795
#	278293
#	290669
#	303654
#	310230
#
# Disc length: 4293 seconds
#
# Revision: 0
# Processed by: cddbd v1.5.2PL0 Copyright (c) Steve Scherf et al.
# Submitted via: EZCDAudioConverter 7.0.6.1
#
DISCID=ab10c31e
DTITLE=Jukebox In Crampsville 1/2
DYEAR=1900
DGENRE=
TTITLE0=Ric Gary - Pimples And Braces
TTITLE1=Bill Parsons - Hot Rod Volkswagen
TTITLE2=Vern Pullens - Bop Crazy Baby
TTITLE3=Curley and The Jades - Boom Stix
TTITLE4=Jerry and Mel - Cannibal Stew
TTITLE5=H-Bomb Ferguson - Little Tiger
TTITLE6=Bill Doggett - Ram-Bunk-Shush
TTITLE7=Johnny Beeman - Laffin'  Beatnik
TTITLE8=Louis Nye - Teenage Beatnik
TTITLE9=Ken Nordine - What Time Is It?
TTITLE10=Ferrante and Teicher - Stardust
TTITLE11=Garrett Williams - Motorcycle Millie
TTITLE12=Janis Martin - Hard Times Ahead
TTITLE13=Lee Ross - The Mummy's Bracelet
TTITLE14=Akim (Aki Aleong) - Voodoo Drums
TTITLE15=Space Man and The Rockets - Cave Man Love
TTITLE16=Betsy Gay - Hound Dog
TTITLE17=Bob Bunny - Scatty Cat
TTITLE18=The Phaetons - Fling
TTITLE19=Bob Taylor - After Hours (Flyin' High)
TTITLE20=Paul Revere and The Raiders - Like, Long Hair
TTITLE21=The Blue Echoes - It's Witchcraft
TTITLE22=Jim Burgett - The Living Dead
TTITLE23=The Holywood Flames - Buzz-Buzz-Buzz
TTITLE24=The Vice-Roys - Buzz-Bomb
TTITLE25=Webb Pierce - My Rough And Rowdy Ways
TTITLE26=Mr. Sunshine - Marijuana, The Devil's Flower
TTITLE27=Webley Edwards - To You Sweetheart, Aloha
TTITLE28=Terri 'Cup Cake' O'Mason - Triangle
TTITLE29=Three Suns - The Creep
EXTD=
EXTT0=
EXTT1=
EXTT2=
EXTT3=
EXTT4=
EXTT5=
EXTT6=
EXTT7=
EXTT8=
EXTT9=
EXTT10=
EXTT11=
EXTT12=
EXTT13=
EXTT14=
EXTT15=
EXTT16=
EXTT17=
EXTT18=
EXTT19=
EXTT20=
EXTT21=
EXTT22=
EXTT23=
EXTT24=
EXTT25=
EXTT26=
EXTT27=
EXTT28=
EXTT29=
PLAYORDER=
